<svg width="57" height="57" viewBox="0 0 57 57" fill="none" xmlns="http://www.w3.org/2000/svg">
<rect x="0.625977" y="0.652283" width="56.0195" height="56.0195" rx="10" fill="white" fill-opacity="0.1"/>
<mask id="mask0_8_59" style="mask-type:alpha" maskUnits="userSpaceOnUse" x="14" y="14" width="29" height="29">
<rect x="14.3546" y="14.3809" width="28.5624" height="28.5624" fill="#D9D9D9"/>
</mask>
<g mask="url(#mask0_8_59)">
<path d="M27.4457 37.4986V29.3464L20.3051 25.2108V33.363L27.4457 37.4986ZM29.8259 37.4986L36.9665 33.363V25.2108L29.8259 29.3464V37.4986ZM27.4457 40.2358L19.115 35.4456C18.7381 35.2275 18.4455 34.9398 18.2373 34.5828C18.029 34.2258 17.9249 33.8291 17.9249 33.3927V23.9314C17.9249 23.495 18.029 23.0983 18.2373 22.7413C18.4455 22.3843 18.7381 22.0967 19.115 21.8785L27.4457 17.0883C27.8225 16.8702 28.2192 16.7611 28.6358 16.7611C29.0523 16.7611 29.449 16.8702 29.8259 17.0883L38.1566 21.8785C38.5334 22.0967 38.826 22.3843 39.0343 22.7413C39.2425 23.0983 39.3467 23.495 39.3467 23.9314V33.3927C39.3467 33.8291 39.2425 34.2258 39.0343 34.5828C38.826 34.9398 38.5334 35.2275 38.1566 35.4456L29.8259 40.2358C29.449 40.454 29.0523 40.5631 28.6358 40.5631C28.2192 40.5631 27.8225 40.454 27.4457 40.2358ZM33.3962 24.5265L35.6871 23.2174L28.6358 19.1413L26.3151 20.4801L33.3962 24.5265ZM28.6358 27.2935L30.9565 25.9546L23.9051 21.8785L21.5844 23.2174L28.6358 27.2935Z" fill="white"/>
</g>
</svg>
