<svg width="148" height="147" viewBox="0 0 148 147" fill="none" xmlns="http://www.w3.org/2000/svg">
<mask id="mask0_18_268" style="mask-type:alpha" maskUnits="userSpaceOnUse" x="0" y="0" width="148" height="147">
<rect x="0.540833" y="0.0803223" width="146.917" height="146.917" fill="#D9D9D9"/>
</mask>
<g mask="url(#mask0_18_268)">
<path d="M45.7455 134.755V92.1745L24.7914 58.2351L49.3373 18.4449H98.6617L123.208 58.2351L102.254 92.1745V134.755L73.9995 124.983L45.7455 134.755ZM51.867 125.773L73.9995 118.367L96.132 125.773V98.0252H51.867V125.773ZM52.6919 24.5665L31.8786 58.2351L52.6919 91.9036H95.3071L116.12 58.2351L95.3071 24.5665H52.6919ZM67.5719 78.8249L50.1958 61.6019L54.5636 57.2342L67.5719 70.2425L93.4355 44.2259L97.8032 48.4406L67.5719 78.8249Z" fill="white"/>
</g>
</svg>
