<svg width="57" height="57" viewBox="0 0 57 57" fill="none" xmlns="http://www.w3.org/2000/svg">
<rect x="0.760193" y="0.761047" width="56.0195" height="56.0195" rx="10" fill="white" fill-opacity="0.1"/>
<mask id="mask0_8_54" style="mask-type:alpha" maskUnits="userSpaceOnUse" x="14" y="14" width="30" height="30">
<rect x="14.4888" y="14.4896" width="28.5624" height="28.5624" fill="#D9D9D9"/>
</mask>
<g mask="url(#mask0_8_54)">
<path d="M21.6294 40.6718V29.7824C20.5583 29.5047 19.6955 28.9394 19.0409 28.0865C18.3863 27.2336 18.0591 26.2716 18.0591 25.2005V16.8698H20.4393V24.0104H21.6294V16.8698H24.0096V24.0104H25.1997V16.8698H27.5799V25.2005C27.5799 26.2716 27.2526 27.2336 26.598 28.0865C25.9435 28.9394 25.0807 29.5047 24.0096 29.7824V40.6718H21.6294ZM33.5304 40.6718V29.3361C32.4593 28.9791 31.5965 28.2303 30.9419 27.0898C30.2874 25.9493 29.9601 24.6551 29.9601 23.2071C29.9601 21.4418 30.4262 19.9443 31.3584 18.7145C32.2907 17.4847 33.4114 16.8698 34.7205 16.8698C36.0296 16.8698 37.1503 17.4897 38.0825 18.7294C39.0148 19.969 39.4809 21.4715 39.4809 23.2369C39.4809 24.6848 39.1536 25.9741 38.499 27.1047C37.8445 28.2353 36.9817 28.9791 35.9106 29.3361V40.6718H33.5304Z" fill="white"/>
</g>
</svg>
