<svg width="43" height="44" viewBox="0 0 43 44" fill="none" xmlns="http://www.w3.org/2000/svg">
<mask id="mask0_8_134" style="mask-type:alpha" maskUnits="userSpaceOnUse" x="0" y="0" width="43" height="44">
<rect y="0.487152" width="42.946" height="42.946" fill="#D9D9D9"/>
</mask>
<g mask="url(#mask0_8_134)">
<path d="M7.82867 38.0649L5.32349 35.5597L23.665 17.2182C23.1282 15.9656 23.0536 14.549 23.4413 12.9683C23.829 11.3877 24.679 9.97107 25.9913 8.71848C27.5719 7.13782 29.3315 6.21329 31.27 5.94488C33.2086 5.67647 34.7892 6.15364 36.012 7.37641C37.2348 8.59918 37.7119 10.1798 37.4435 12.1184C37.1751 14.0569 36.2506 15.8165 34.6699 17.3972C33.4173 18.7094 32.0007 19.5594 30.4201 19.9471C28.8394 20.3348 27.4228 20.2602 26.1702 19.7234L23.9334 21.9602L37.533 35.5597L35.0278 38.0649L21.4282 24.5548L7.82867 38.0649ZM13.1075 22.7654L7.7392 17.3972C6.12872 15.7867 5.32349 13.8631 5.32349 11.6263C5.32349 9.38951 6.12872 7.46588 7.7392 5.85541L18.8336 17.0393L13.1075 22.7654Z" fill="white"/>
</g>
</svg>
