<svg width="32" height="32" viewBox="0 0 32 32" fill="none" xmlns="http://www.w3.org/2000/svg">
<mask id="mask0_8_78" style="mask-type:alpha" maskUnits="userSpaceOnUse" x="0" y="0" width="32" height="32">
<rect x="0.302917" y="0.263184" width="31.3942" height="31.3942" fill="#D9D9D9"/>
</mask>
<g mask="url(#mask0_8_78)">
<path d="M25.9414 27.7331L17.7004 19.4921C17.0464 20.0153 16.2942 20.4296 15.444 20.7348C14.5937 21.04 13.689 21.1926 12.7297 21.1926C10.3533 21.1926 8.34215 20.3696 6.69613 18.7236C5.05012 17.0776 4.22711 15.0664 4.22711 12.69C4.22711 10.3137 5.05012 8.30247 6.69613 6.65646C8.34215 5.01045 10.3533 4.18744 12.7297 4.18744C15.1061 4.18744 17.1173 5.01045 18.7633 6.65646C20.4093 8.30247 21.2323 10.3137 21.2323 12.69C21.2323 13.6493 21.0797 14.5541 20.7745 15.4043C20.4692 16.2546 20.055 17.0067 19.5318 17.6608L27.7727 25.9017L25.9414 27.7331ZM12.7297 18.5764C14.3648 18.5764 15.7547 18.0041 16.8992 16.8596C18.0438 15.715 18.6161 14.3251 18.6161 12.69C18.6161 11.0549 18.0438 9.66507 16.8992 8.52049C15.7547 7.37591 14.3648 6.80362 12.7297 6.80362C11.0946 6.80362 9.70474 7.37591 8.56016 8.52049C7.41558 9.66507 6.84329 11.0549 6.84329 12.69C6.84329 14.3251 7.41558 15.715 8.56016 16.8596C9.70474 18.0041 11.0946 18.5764 12.7297 18.5764Z" fill="white" fill-opacity="0.35"/>
</g>
</svg>
