<svg width="24" height="24" viewBox="0 0 24 24" fill="none" xmlns="http://www.w3.org/2000/svg">
  <path d="M22 4C21 4.5 20.0209 4.78732 19 5C20.0209 4.30986 20.7799 3.22535 21 2C20 2.5 18.9582 2.83099 17.8164 3C16.8372 2 15.3788 1.5 14 1.5C11.0705 1.5 8.69617 3.87324 8.69617 6.80282C8.69617 7.30986 8.73743 7.80282 8.86121 8.25352C4.43639 8.04225 0.475907 5.92958 -1 3C-1.45677 3.94366 -1.70677 5.01408 -1.70677 6.16901C-1.70677 8.30986 -0.578725 10.2254 0.888374 11.3803C0.0116279 11.3803 -0.82327 11.169 -1.53764 10.831C-1.53764 13.3803 0.26327 15.5493 2.64793 16.1408C2.19117 16.2817 1.69314 16.3521 1.15385 16.3521C0.822005 16.3521 0.490161 16.3239 0.158317 16.2535C0.822005 18.3662 2.81297 19.9296 5.17511 19.9859C3.34668 21.4085 1.06134 22.2817 -1.41386 22.2817C-1.87062 22.2817 -2.28612 22.2535 -2.70161 22.1972C0.0528725 23.7324 3.30542 24.6338 6.76521 24.6338C13.9582 24.6338 17.9375 18.4366 17.9375 13.0423C17.9375 12.8732 17.9375 12.7042 17.9375 12.5352C19 11.7746 19.9167 10.8028 20.6667 9.69014C19.6667 10.0845 18.625 10.3662 17.5417 10.4789C18.6667 9.83099 19.5417 8.7831 20 7.5" fill="black" stroke="black" stroke-width="1.5" stroke-linecap="round" stroke-linejoin="round"/>
</svg> 